<!DOCTYPE svg PUBLIC "-//W3C//DTD SVG 1.1//EN" "http://www.w3.org/Graphics/SVG/1.1/DTD/svg11.dtd">
<!-- Uploaded to: SVG Repo, www.svgrepo.com, Transformed by: SVG Repo Mixer Tools -->
<svg fill="#4f46e5" width="256px" height="256px" viewBox="-2 -2 24.00 24.00" xmlns="http://www.w3.org/2000/svg">
<g id="SVGRepo_bgCarrier" stroke-width="0">
<path transform="translate(-2, -2), scale(0.75)" d="M16,25.178497451504594C19.532621521810114,25.392203695390485,23.67475254436848,28.67971069552149,26.165354590952933,26.165354590952937C28.658088746423985,23.64884604255982,24.917201943548083,19.537804358748087,25.09178476976721,16C25.286845671647402,12.04722111654369,29.234956844570952,8.18594825097626,27.220709593199054,4.77929040680095C25.110382668630855,1.2101348493299926,20.126954803834373,0.2224950717687909,16.000000000000004,0.6232383425690635C12.17482996037178,0.9946771457329815,9.354986920977346,3.925708108193401,6.765564133076939,6.765564133076937C4.337131449532012,9.428860068995148,1.9340277765280145,12.396059613556194,1.979240957647562,15.999999999999998C2.0240488111385044,19.57163174161271,4.005893824046252,23.049224874657824,6.994394306243279,25.005605693756717C9.60581172316307,26.715134260192407,12.88447973500947,24.99002378415278,16,25.178497451504594" fill="#e0e7ff" strokewidth="0"/>
</g>
<g id="SVGRepo_tracerCarrier" stroke-linecap="round" stroke-linejoin="round"/>
<g id="SVGRepo_iconCarrier">
<path d="M17 1h-2a1 1 0 0 0-1 1v16.992h4V2a1 1 0 0 0-1-1zm-6 6H9a1 1 0 0 0-1 1v10.992h4V8a1 1 0 0 0-1-1zm-6 6H3a1 1 0 0 0-1 1v4.992h4V14a1 1 0 0 0-1-1z"/>
</g>
</svg>