<svg height="auto" viewBox="0 0 2000 11000" xmlns="http://www.w3.org/2000/svg"><path d="M0 10810.369c44.4-158.903 133.2-577.507 222-794.517 88.8-217.01 133.2 135.888 222-290.534 88.8-426.421 133.2-1593.79 222-1841.574 88.8-247.784 133.2 835.666 222 602.653 88.8-233.014 133.2-823.497 222-1767.72 88.8-944.225 133.2-2541.208 222-2953.4 88.8-412.193 133.2 1206.178 222 892.436 88.8-313.743 133.2-1557.817 222-2461.149 88.8-903.332 177.6-1644.408 222-2055.51L2000 11000H0Z" fill="#444cf71a"/><path d="M0 10810.369c44.4-158.903 133.2-577.507 222-794.517 88.8-217.01 133.2 135.888 222-290.534 88.8-426.421 133.2-1593.79 222-1841.574 88.8-247.784 133.2 835.666 222 602.653 88.8-233.014 133.2-823.497 222-1767.72 88.8-944.225 133.2-2541.208 222-2953.4 88.8-412.193 133.2 1206.178 222 892.436 88.8-313.743 133.2-1557.817 222-2461.149 88.8-903.332 177.6-1644.408 222-2055.51" fill="none" stroke="#444cf7" stroke-width="4"/><g fill="#444cf7"><circle cy="10810.369" r="8"/><circle cx="222" cy="10015.852" r="8"/><circle cx="444" cy="9725.318" r="8"/><circle cx="666" cy="7883.744" r="8"/><circle cx="888" cy="8486.397" r="8"/><circle cx="1110" cy="6718.676" r="8"/><circle cx="1332" cy="3765.276" r="8"/><circle cx="1554" cy="4657.713" r="8"/><circle cx="1776" cy="2196.564" r="8"/><circle cx="1998" cy="141.054" r="8"/></g></svg>