<svg height="auto" viewBox="0 0 2000 1000" xmlns="http://www.w3.org/2000/svg"><path d="M0 988.11c28.6-9.544 85.8-25.117 143-47.718 57.2-22.602 85.8-55.197 143-65.29 57.2-10.091 85.8 46.644 143 14.83 57.2-31.812 85.8-148.494 143-173.895 57.2-25.4 85.8 43.679 143 46.891 57.2 3.213 85.8-11.62 143-30.828 57.2-19.209 85.8-48.02 143-65.213 57.2-17.193 85.8 27.366 143-20.75 57.2-48.115 85.8-152.703 143-219.826 57.2-67.124 85.8-100.052 143-115.79 57.2-15.739 85.8 25.125 143 37.099 57.2 11.973 85.8 64.05 143 22.768s85.8-253.795 143-229.178c57.2 24.617 114.4 281.811 143 352.264L2000 1000H0Z" fill="#6366f11a"/><path d="M0 988.11c28.6-9.544 85.8-25.117 143-47.718 57.2-22.602 85.8-55.197 143-65.29 57.2-10.091 85.8 46.644 143 14.83 57.2-31.812 85.8-148.494 143-173.895 57.2-25.4 85.8 43.679 143 46.891 57.2 3.213 85.8-11.62 143-30.828 57.2-19.209 85.8-48.02 143-65.213 57.2-17.193 85.8 27.366 143-20.75 57.2-48.115 85.8-152.703 143-219.826 57.2-67.124 85.8-100.052 143-115.79 57.2-15.739 85.8 25.125 143 37.099 57.2 11.973 85.8 64.05 143 22.768s85.8-253.795 143-229.178c57.2 24.617 114.4 281.811 143 352.264" fill="none" stroke="#6366f1" stroke-width="4"/><g fill="#6366f1"><circle cy="988.11" r="8"/><circle cx="143" cy="940.392" r="8"/><circle cx="286" cy="875.103" r="8"/><circle cx="429" cy="889.933" r="8"/><circle cx="572" cy="716.037" r="8"/><circle cx="715" cy="762.928" r="8"/><circle cx="858" cy="732.1" r="8"/><circle cx="1001" cy="666.887" r="8"/><circle cx="1144" cy="646.137" r="8"/><circle cx="1287" cy="426.311" r="8"/><circle cx="1430" cy="310.52" r="8"/><circle cx="1573" cy="347.62" r="8"/><circle cx="1716" cy="370.388" r="8"/><circle cx="1859" cy="141.21" r="8"/><circle cx="2002" cy="493.474" r="8"/></g></svg>