<svg height="auto" viewBox="0 0 2000 1900" xmlns="http://www.w3.org/2000/svg"><path d="M0 1885.61c16.6-9.02 49.8-23.337 83-45.105 33.2-21.768 49.8-28.91 83-63.734s49.8-92.714 83-110.386c33.2-17.673 49.8 35.226 83 22.024 33.2-13.201 49.8-51.247 83-88.033 33.2-36.787 49.8-60.229 83-95.897 33.2-35.668 49.8-86.117 83-82.445 33.2 3.671 49.8 135.795 83 100.803 33.2-34.992 49.8-222.836 83-275.764 33.2-52.93 49.8-28.655 83 11.12s49.8 176.25 83 187.755c33.2 11.504 49.8-94.04 83-130.232 33.2-36.192 49.8 46.458 83-50.73 33.2-97.188 49.8-432.032 83-435.21 33.2-3.177 49.8 351.552 83 419.324 33.2 67.773 49.8-55.804 83-80.46 33.2-24.655 49.8 7.474 83-42.817 33.2-50.29 49.8-174.562 83-208.636 33.2-34.075 49.8 72.027 83 38.262s49.8-218.854 83-207.087c33.2 11.766 49.8 347.08 83 265.92 33.2-81.16 49.8-572.352 83-671.72 33.2-99.366 49.8 224.24 83 174.886 33.2-49.353 66.4-337.322 83-421.653L2000 1900H0Z" fill="#6366f11a"/><path d="M0 1885.61c16.6-9.02 49.8-23.337 83-45.105 33.2-21.768 49.8-28.91 83-63.734s49.8-92.714 83-110.386c33.2-17.673 49.8 35.226 83 22.024 33.2-13.201 49.8-51.247 83-88.033 33.2-36.787 49.8-60.229 83-95.897 33.2-35.668 49.8-86.117 83-82.445 33.2 3.671 49.8 135.795 83 100.803 33.2-34.992 49.8-222.836 83-275.764 33.2-52.93 49.8-28.655 83 11.12s49.8 176.25 83 187.755c33.2 11.504 49.8-94.04 83-130.232 33.2-36.192 49.8 46.458 83-50.73 33.2-97.188 49.8-432.032 83-435.21 33.2-3.177 49.8 351.552 83 419.324 33.2 67.773 49.8-55.804 83-80.46 33.2-24.655 49.8 7.474 83-42.817 33.2-50.29 49.8-174.562 83-208.636 33.2-34.075 49.8 72.027 83 38.262s49.8-218.854 83-207.087c33.2 11.766 49.8 347.08 83 265.92 33.2-81.16 49.8-572.352 83-671.72 33.2-99.366 49.8 224.24 83 174.886 33.2-49.353 66.4-337.322 83-421.653" fill="none" stroke="#6366f1" stroke-width="4"/><g fill="#6366f1"><circle cy="1885.61" r="8"/><circle cx="83" cy="1840.505" r="8"/><circle cx="166" cy="1776.771" r="8"/><circle cx="249" cy="1666.385" r="8"/><circle cx="332" cy="1688.409" r="8"/><circle cx="415" cy="1600.376" r="8"/><circle cx="498" cy="1504.479" r="8"/><circle cx="581" cy="1422.034" r="8"/><circle cx="664" cy="1522.837" r="8"/><circle cx="747" cy="1247.073" r="8"/><circle cx="830" cy="1258.193" r="8"/><circle cx="913" cy="1445.948" r="8"/><circle cx="996" cy="1315.716" r="8"/><circle cx="1079" cy="1264.986" r="8"/><circle cx="1162" cy="829.776" r="8"/><circle cx="1245" cy="1249.1" r="8"/><circle cx="1328" cy="1168.64" r="8"/><circle cx="1411" cy="1125.823" r="8"/><circle cx="1494" cy="917.187" r="8"/><circle cx="1577" cy="955.449" r="8"/><circle cx="1660" cy="748.362" r="8"/><circle cx="1743" cy="1014.281" r="8"/><circle cx="1826" cy="342.563" r="8"/><circle cx="1909" cy="517.448" r="8"/><circle cx="1992" cy="95.795" r="8"/></g></svg>