<?xml version="1.0" encoding="utf-8"?>
<svg viewBox="0 0 500 500" xmlns="http://www.w3.org/2000/svg">
  <title/>
  <path d="M 397.193 359.685 C 397.222 359.928 397.238 360.173 397.241 360.418 C 397.362 373.818 381.35 389.918 355.516 402.399 C 334.586 412.513 298.464 424.569 245.242 424.569 C 192.02 424.569 155.898 412.513 134.968 402.399 C 109.134 389.917 93.122 373.815 93.242 360.418 C 93.246 360.173 93.262 359.928 93.29 359.685 L 104.342 260.193 C 104.866 255.476 109.832 252.637 114.162 254.578 L 232.153 307.469 C 240.482 311.196 250.004 311.196 258.332 307.469 L 376.318 254.579 C 380.649 252.638 385.614 255.477 386.138 260.194 L 397.193 359.685 Z M 464.23 169.969 L 258.33 77.669 C 250.002 73.94 240.479 73.94 232.151 77.669 L 26.251 169.969 C 15.012 175.007 13.442 190.323 23.425 197.537 C 24.309 198.176 25.256 198.722 26.251 199.169 L 232.151 291.469 C 240.48 295.196 250.002 295.196 258.33 291.469 L 429.242 214.853 L 429.242 274.727 C 424.293 277.579 421.243 282.856 421.242 288.569 L 421.242 392.569 L 453.242 392.569 L 453.242 288.569 C 453.241 282.856 450.191 277.579 445.242 274.727 L 445.242 207.68 L 464.229 199.169 C 475.468 194.13 477.038 178.814 467.055 171.6 C 466.171 170.961 465.224 170.415 464.229 169.969 L 464.23 169.969 Z" style="fill: rgb(79, 70, 229);"/>
</svg>