<?xml version="1.0" encoding="utf-8"?>
<svg viewBox="0 0 500 500" xmlns="http://www.w3.org/2000/svg">
  <title/>
  <path d="M 400.553 366.963 C 400.582 367.206 400.598 367.451 400.601 367.696 C 400.722 381.096 384.71 397.196 358.876 409.677 C 337.946 419.791 301.824 431.847 248.602 431.847 C 195.38 431.847 159.258 419.791 138.328 409.677 C 112.494 397.195 96.482 381.093 96.602 367.696 C 96.606 367.451 96.622 367.206 96.65 366.963 L 107.702 267.471 C 108.226 262.755 113.192 259.915 117.522 261.856 L 235.513 314.747 C 243.841 318.474 253.364 318.474 261.692 314.747 L 379.678 261.857 C 384.009 259.916 388.974 262.756 389.498 267.472 L 400.553 366.963 Z M 467.59 177.247 L 261.69 84.947 C 253.362 81.219 243.839 81.219 235.511 84.947 L 29.611 177.247 C 18.372 182.285 16.802 197.601 26.785 204.815 C 27.669 205.454 28.616 206.001 29.611 206.447 L 235.511 298.747 C 243.839 302.474 253.362 302.474 261.69 298.747 L 432.602 222.131 L 432.602 282.005 C 427.653 284.857 424.603 290.135 424.602 295.847 L 424.602 399.847 L 456.602 399.847 L 456.602 295.847 C 456.601 290.135 453.551 284.857 448.602 282.005 L 448.602 214.958 L 467.589 206.447 C 478.828 201.408 480.398 186.093 470.415 178.879 C 469.531 178.24 468.584 177.693 467.589 177.247 L 467.59 177.247 Z" style="fill: rgb(238, 242, 255);"/>
</svg>