<?xml version="1.0" standalone="no"?>
<!DOCTYPE svg PUBLIC "-//W3C//DTD SVG 20010904//EN"
 "http://www.w3.org/TR/2001/REC-SVG-20010904/DTD/svg10.dtd">
<svg version="1.0" xmlns="http://www.w3.org/2000/svg"
 width="1200.000000pt" height="1200.000000pt" viewBox="0 0 1200.000000 1200.000000"
 preserveAspectRatio="xMidYMid meet">

<g transform="translate(0.000000,1200.000000) scale(0.100000,-0.100000)"
fill="#000000" stroke="none">
<path d="M5426 8021 c-344 -126 -574 -214 -580 -224 -18 -29 4 -49 130 -114
65 -33 119 -65 119 -70 0 -4 -11 -35 -24 -68 -18 -45 -25 -86 -29 -167 -4
-106 -5 -107 -31 -110 -33 -4 -51 -39 -51 -105 0 -59 13 -101 38 -119 16 -11
13 -36 -34 -368 l-50 -356 32 19 c32 19 32 19 37 0 6 -23 44 -25 72 -5 17 12
22 12 44 -5 32 -25 46 -24 70 7 19 24 21 25 50 9 17 -8 31 -12 31 -8 0 5 -23
163 -51 352 -46 301 -50 345 -37 355 27 20 38 54 38 120 0 74 -20 106 -65 106
-14 0 -25 5 -25 11 0 6 19 75 42 154 l41 143 41 -18 c23 -10 107 -47 188 -84
81 -36 249 -104 373 -151 l227 -86 256 107 c261 108 833 374 865 402 20 18 22
45 5 59 -22 17 -1112 423 -1133 422 -11 -1 -276 -94 -589 -208z"/>
<path d="M5390 7355 c-18 -22 -87 -732 -73 -754 18 -28 36 -23 133 41 118 77
215 128 243 128 31 0 105 -53 212 -149 50 -44 96 -81 103 -81 8 0 39 20 70 44
92 70 211 145 248 155 57 16 121 -12 243 -103 129 -97 126 -106 112 307 -14
392 -14 395 -44 402 -16 4 -110 -33 -307 -119 -155 -69 -289 -126 -296 -126
-6 0 -147 61 -312 135 -165 74 -304 135 -310 135 -5 0 -15 -7 -22 -15z"/>
<path d="M6710 5696 l0 -124 -37 20 c-56 29 -140 21 -195 -18 -113 -79 -133
-314 -35 -417 60 -64 168 -69 244 -11 30 23 33 23 33 7 0 -30 21 -43 67 -43
l43 0 0 355 0 355 -60 0 -60 0 0 -124z m-25 -202 c24 -16 25 -20 25 -126 0
-105 -1 -110 -26 -133 -55 -51 -141 -38 -163 26 -14 41 -14 154 0 182 26 49
51 67 96 67 24 0 55 -7 68 -16z"/>
<path d="M6973 5808 c-12 -6 -27 -24 -34 -41 -15 -37 2 -75 44 -95 34 -16 74
0 96 39 19 33 2 81 -35 98 -30 13 -42 13 -71 -1z"/>
<path d="M7315 5796 c-60 -27 -95 -87 -95 -163 0 -31 -2 -33 -35 -33 -34 0
-35 -1 -35 -39 0 -40 11 -51 51 -51 18 0 19 -10 19 -200 l0 -200 60 0 60 0 0
200 0 200 60 0 60 0 0 45 0 45 -60 0 -60 0 0 34 c0 48 27 76 78 83 33 4 44 11
48 29 13 49 3 59 -61 61 -34 2 -73 -3 -90 -11z"/>
<path d="M4273 5783 c-4 -10 -64 -164 -134 -343 l-127 -325 60 -3 c41 -2 65 1
74 10 6 7 23 45 37 83 l25 70 139 3 140 3 23 -63 c37 -103 41 -108 110 -108
33 0 60 4 60 10 0 5 -59 160 -132 345 l-131 335 -69 0 c-56 0 -70 -3 -75 -17z
m131 -276 c25 -70 46 -130 46 -132 0 -8 -200 -5 -200 3 -1 20 96 270 101 264
4 -4 28 -65 53 -135z"/>
<path d="M4772 5738 c-5 -7 -13 -37 -17 -66 -8 -59 -25 -82 -61 -82 -28 0 -39
-19 -30 -54 5 -19 14 -25 39 -28 l32 -3 5 -165 c3 -91 9 -173 13 -182 17 -34
60 -53 122 -52 33 0 69 6 80 12 50 28 49 28 26 66 -24 39 -32 42 -62 26 -13
-8 -25 -7 -39 0 -19 10 -20 21 -20 155 l0 145 95 0 95 0 0 -157 c0 -171 5
-191 53 -227 36 -27 127 -28 175 -3 38 21 39 29 11 68 -21 29 -26 30 -75 12
-6 -2 -19 3 -28 12 -13 14 -16 40 -16 156 l0 139 65 0 65 0 0 45 0 45 -65 0
-65 0 0 75 0 75 -40 0 c-46 0 -53 -10 -65 -97 l-7 -53 -99 0 -99 0 0 75 0 75
-39 0 c-21 0 -43 -6 -49 -12z"/>
<path d="M5497 5597 c-195 -61 -214 -378 -29 -469 88 -42 240 -22 295 40 18
20 18 21 0 46 -22 31 -38 32 -94 6 -86 -38 -157 -18 -190 53 -10 23 -19 48
-19 54 0 9 42 13 163 15 l162 3 3 33 c2 18 -4 57 -12 86 -33 114 -154 172
-279 133z m136 -97 c25 -20 50 -73 40 -84 -4 -3 -51 -6 -105 -6 -89 0 -98 2
-98 19 0 24 37 70 64 81 36 15 72 11 99 -10z"/>
<path d="M6067 5596 c-21 -8 -46 -21 -56 -30 -16 -15 -19 -14 -29 9 -10 22
-18 25 -62 25 l-50 0 2 -242 3 -243 63 -3 62 -3 0 179 0 180 27 17 c15 10 45
20 68 23 36 4 45 1 63 -23 21 -26 22 -39 22 -201 l0 -174 61 0 60 0 -3 199
c-3 218 -5 226 -70 274 -34 25 -112 31 -161 13z"/>
<path d="M6950 5355 l0 -245 60 0 60 0 0 245 0 245 -60 0 -60 0 0 -245z"/>
<path d="M7473 5588 c3 -7 47 -109 98 -225 l93 -213 -42 -92 c-23 -51 -42 -96
-42 -100 0 -13 107 -9 117 5 8 9 241 548 270 625 4 10 -9 12 -58 10 l-63 -3
-53 -135 c-29 -74 -55 -142 -58 -150 -4 -9 -33 49 -68 135 l-62 150 -69 3
c-53 2 -67 0 -63 -10z"/>
</g>
</svg>
